<svg width="20" height="14" viewBox="0 0 20 14" fill="none" xmlns="http://www.w3.org/2000/svg">
<path d="M7.4944 3.7083L7.4277 3.75277L7.41711 3.67331C7.32966 3.0175 7.05705 2.48415 6.59979 2.07044C6.1422 1.65643 5.60967 1.45003 5 1.45003C4.51901 1.45003 4.08301 1.55926 3.69095 1.77707L3.61667 1.81834V1.73337V0.733365C3.61667 0.56695 3.56512 0.43586 3.46464 0.335387C3.36417 0.234916 3.23308 0.183366 3.06667 0.183366H0.6C0.433585 0.183366 0.302494 0.234916 0.202022 0.335387C0.10155 0.43586 0.05 0.56695 0.05 0.733365V13.2667C0.05 13.4331 0.10155 13.5642 0.202022 13.6647C0.302494 13.7651 0.433585 13.8167 0.6 13.8167H3.06667C3.23308 13.8167 3.36417 13.7651 3.46464 13.6647C3.56512 13.5642 3.61667 13.4331 3.61667 13.2667V11.3334V11.2834H3.66667H16.3333H16.3833V11.3334V13.2667C16.3833 13.4331 16.4349 13.5642 16.5354 13.6647C16.6358 13.7651 16.7669 13.8167 16.9333 13.8167H19.4C19.5664 13.8167 19.6975 13.7651 19.798 13.6647C19.8985 13.5642 19.95 13.4331 19.95 13.2667V5.73337C19.95 5.0805 19.7112 4.51529 19.2313 4.03539C18.7514 3.55549 18.1862 3.3167 17.5333 3.3167H8.73333C8.29957 3.3167 7.88689 3.44664 7.4944 3.7083ZM3.61667 5.93337V5.83994L3.6944 5.89176C4.08645 6.15313 4.51018 6.28337 4.96667 6.28337C5.42315 6.28337 5.84688 6.15313 6.23893 5.89176L6.31667 5.83994V5.93337V7.6667V7.7167H6.26667H3.66667H3.61667V7.6667V5.93337ZM18.85 12.6667V12.7167H18.8H17.4667H17.4167V12.6667V10.7334C17.4167 10.6156 17.3682 10.5056 17.2646 10.4021C17.1611 10.2985 17.0511 10.25 16.9333 10.25H3.06667C2.94894 10.25 2.83889 10.2985 2.73536 10.4021C2.63182 10.5056 2.58333 10.6156 2.58333 10.7334V12.6667V12.7167H2.53333H1.2H1.15V12.6667V1.33337V1.28337H1.2H2.53333H2.58333V1.33337V8.2667C2.58333 8.38519 2.6325 8.50759 2.73841 8.63469C2.8431 8.76032 2.95239 8.8167 3.06667 8.8167H18.8H18.85V8.8667V12.6667ZM18.85 7.6667V7.7167H18.8H7.46667H7.41667V7.6667V5.73337C7.41667 5.36497 7.54386 5.05213 7.79798 4.79801C8.05209 4.54389 8.36494 4.4167 8.73333 4.4167H17.5333C17.9017 4.4167 18.2146 4.54389 18.4687 4.79801C18.7228 5.05213 18.85 5.36497 18.85 5.73337V7.6667ZM5 2.48337C5.36985 2.48337 5.68313 2.62279 5.93686 2.89958C6.18959 3.17529 6.31667 3.49839 6.31667 3.8667C6.31667 4.23509 6.18947 4.54794 5.93536 4.80205C5.68124 5.05617 5.36839 5.18337 5 5.18337C4.6317 5.18337 4.30859 5.05629 4.03288 4.80356C3.75609 4.54983 3.61667 4.23655 3.61667 3.8667C3.61667 3.49701 3.7559 3.17342 4.03131 2.89801C4.30672 2.6226 4.63032 2.48337 5 2.48337Z" fill="#131E29" stroke="white" stroke-width="0.1"/>
</svg>
