<svg width="20" height="20" viewBox="0 0 20 20" fill="none" xmlns="http://www.w3.org/2000/svg">
<g clip-path="url(#clip0_14394_10805)">
<path d="M7.4944 6.7083L7.4277 6.75277L7.41711 6.67331C7.32966 6.0175 7.05705 5.48415 6.59979 5.07044C6.1422 4.65643 5.60967 4.45003 5 4.45003C4.51901 4.45003 4.08301 4.55926 3.69095 4.77707L3.61667 4.81834V4.73337V3.73337C3.61667 3.56695 3.56512 3.43586 3.46464 3.33539C3.36417 3.23492 3.23308 3.18337 3.06667 3.18337H0.6C0.433585 3.18337 0.302494 3.23492 0.202022 3.33539C0.10155 3.43586 0.05 3.56695 0.05 3.73337V16.2667C0.05 16.4331 0.10155 16.5642 0.202022 16.6647C0.302494 16.7651 0.433585 16.8167 0.6 16.8167H3.06667C3.23308 16.8167 3.36417 16.7651 3.46464 16.6647C3.56512 16.5642 3.61667 16.4331 3.61667 16.2667V14.3334V14.2834H3.66667H16.3333H16.3833V14.3334V16.2667C16.3833 16.4331 16.4349 16.5642 16.5354 16.6647C16.6358 16.7651 16.7669 16.8167 16.9333 16.8167H19.4C19.5664 16.8167 19.6975 16.7651 19.798 16.6647C19.8985 16.5642 19.95 16.4331 19.95 16.2667V8.73337C19.95 8.0805 19.7112 7.51529 19.2313 7.03539C18.7514 6.55549 18.1862 6.3167 17.5333 6.3167H8.73333C8.29957 6.3167 7.88689 6.44664 7.4944 6.7083ZM3.61667 8.93337V8.83994L3.6944 8.89176C4.08645 9.15313 4.51018 9.28337 4.96667 9.28337C5.42315 9.28337 5.84688 9.15313 6.23893 8.89176L6.31667 8.83994V8.93337V10.6667V10.7167H6.26667H3.66667H3.61667V10.6667V8.93337ZM18.85 15.6667V15.7167H18.8H17.4667H17.4167V15.6667V13.7334C17.4167 13.6156 17.3682 13.5056 17.2646 13.4021C17.1611 13.2985 17.0511 13.25 16.9333 13.25H3.06667C2.94894 13.25 2.83889 13.2985 2.73536 13.4021C2.63182 13.5056 2.58333 13.6156 2.58333 13.7334V15.6667V15.7167H2.53333H1.2H1.15V15.6667V4.33337V4.28337H1.2H2.53333H2.58333V4.33337V11.2667C2.58333 11.3852 2.6325 11.5076 2.73841 11.6347C2.8431 11.7603 2.95239 11.8167 3.06667 11.8167H18.8H18.85V11.8667V15.6667ZM18.85 10.6667V10.7167H18.8H7.46667H7.41667V10.6667V8.73337C7.41667 8.36497 7.54386 8.05213 7.79798 7.79801C8.05209 7.54389 8.36494 7.4167 8.73333 7.4167H17.5333C17.9017 7.4167 18.2146 7.54389 18.4687 7.79801C18.7228 8.05213 18.85 8.36497 18.85 8.73337V10.6667ZM5 5.48337C5.36985 5.48337 5.68313 5.62279 5.93686 5.89958C6.18959 6.17529 6.31667 6.49839 6.31667 6.8667C6.31667 7.23509 6.18947 7.54794 5.93536 7.80205C5.68124 8.05617 5.36839 8.18337 5 8.18337C4.6317 8.18337 4.30859 8.05629 4.03288 7.80356C3.75609 7.54983 3.61667 7.23655 3.61667 6.8667C3.61667 6.49701 3.7559 6.17342 4.03131 5.89801C4.30672 5.6226 4.63032 5.48337 5 5.48337Z" fill="#131E29" stroke="white" stroke-width="0.1"/>
</g>
<defs>
<clipPath id="clip0_14394_10805">
<rect width="20" height="20" fill="white" transform="matrix(1 0 0 -1 0 20)"/>
</clipPath>
</defs>
</svg>
