<svg width="78" height="36" viewBox="0 0 78 36" fill="none" xmlns="http://www.w3.org/2000/svg">
<path fill-rule="evenodd" clip-rule="evenodd" d="M47.3388 7.70264H38.7169V8.50425C39.1308 8.54509 39.4679 8.58954 39.744 8.65318C40.069 8.72814 40.3097 8.82964 40.4875 8.98288C40.9916 9.41799 40.9915 10.2226 40.9912 11.668V11.7616L40.9909 21.8614C40.9908 21.9772 40.9913 22.0959 40.9918 22.2165C41.0003 24.2358 41.0112 26.8247 38.2941 26.7883C37.0597 26.7717 35.7925 25.8829 35.399 24.258H34.4082C34.8273 26.9807 36.2612 28.8275 39.7361 28.8275H39.7522C42.7041 28.8275 45.3382 27.456 45.3337 22.7943V11.7616V11.6705C45.3335 10.2249 45.3333 9.45176 45.8374 9.01706C46.1667 8.73315 46.4389 8.5928 47.3388 8.50425V7.70264ZM57.377 7.70264H48.7755V8.50647C49.6736 8.59525 49.9452 8.73595 50.2733 9.02062C50.6849 9.3775 50.7592 9.96183 50.7733 10.9562L50.7727 11.0875C50.7717 11.3542 50.7705 11.6468 50.7758 11.9686V24.0811C50.7705 24.4031 50.7717 24.6955 50.7727 24.9624L50.7733 25.0941C50.7592 26.0881 50.6849 26.6725 50.2733 27.0293C49.9452 27.314 49.6736 27.4547 48.7755 27.5435V28.3473H57.377L61.7723 28.347L63.1426 24.3035H62.1334C61.1347 26.5252 59.5901 26.7846 58.1811 26.7846C57.0288 26.7846 56.2623 26.7187 55.7185 26.3608C55.2798 26.0755 55.1158 25.3229 55.108 24.0478V11.7727L55.108 11.6814C55.1078 10.2304 55.1077 9.42294 55.6109 8.98673C55.939 8.70171 56.4789 8.59525 57.377 8.50647V7.70264ZM63.1426 7.70264H71.7444V8.50647C70.8466 8.59525 70.3065 8.70171 69.9786 8.98673C69.4752 9.42271 69.4752 10.2295 69.4758 11.6788V11.7727V24.0478C69.4834 25.3229 69.6473 26.0755 70.0854 26.3608C70.6297 26.7187 71.3956 26.7846 72.5482 26.7846C73.957 26.7846 75.5017 26.5252 76.5009 24.3035H77.5101L76.1398 28.347H71.7444L63.1426 28.3473V27.5435C64.0403 27.4547 64.3127 27.314 64.6406 27.0293C65.0524 26.6725 65.1265 26.0881 65.1405 25.0941C65.1399 25.0579 65.1399 25.0212 65.1399 24.9841C65.1387 24.7114 65.1376 24.4118 65.1434 24.0811V11.9686C65.1376 11.6381 65.1387 11.3386 65.1399 11.066C65.1399 11.0289 65.1399 10.9923 65.1405 10.9562C65.1265 9.96183 65.0524 9.3775 64.6406 9.02062C64.3127 8.73595 64.0403 8.59525 63.1426 8.50647V7.70264Z" fill="#131E29"/>
<path fill-rule="evenodd" clip-rule="evenodd" d="M25.5282 33.5803C27.0749 32.4075 28.2357 30.7649 29.1073 29.0341C30.1725 26.9203 30.8523 24.569 31.2033 22.2665C31.4318 20.7663 31.5363 19.2626 31.5346 17.7851C31.5363 16.3072 31.4324 14.8036 31.2033 13.3033C30.8525 11.0008 30.1725 8.64985 29.1077 6.53579C28.2357 4.80497 27.0749 3.16236 25.5285 1.98954C24.3756 1.11444 22.9294 0.537731 21.4786 0.500977H21.4779C20.5896 0.523715 19.7042 0.749026 18.8859 1.12082C18.35 0.886732 17.7886 0.714503 17.2171 0.611045C17.0625 0.583074 16.9078 0.556919 16.7524 0.539845C16.5722 0.519866 16.3908 0.505699 16.2102 0.500977L16.2099 0.551833C16.2236 0.561685 16.2371 0.572229 16.2504 0.582743C16.2627 0.592387 16.275 0.602007 16.2874 0.611045C16.4446 0.724745 16.6003 0.841352 16.7524 0.963408C17.0796 1.22611 17.3946 1.50672 17.6973 1.80124C17.685 1.80978 17.6727 1.81835 17.6605 1.82695C17.6342 1.84549 17.6077 1.86373 17.5812 1.88195C17.5296 1.91752 17.4776 1.95327 17.4278 1.99081C17.0276 2.29433 16.6567 2.63209 16.3078 2.99274C16.0973 2.79419 15.8792 2.60349 15.6533 2.42142C15.1643 2.93415 14.7106 3.47907 14.2943 4.03868C14.4403 4.23475 14.5824 4.43261 14.7191 4.63155C14.7623 4.69465 14.804 4.75861 14.8448 4.82306C14.8135 4.87034 14.7824 4.91781 14.7516 4.96546C14.422 5.47545 14.1197 6.00283 13.8487 6.54122C12.7836 8.65679 12.1035 11.0097 11.7525 13.3142C11.524 14.8157 11.4198 16.3203 11.4211 17.7998C11.4198 19.2789 11.524 20.7838 11.7525 22.2853C12.1032 24.5898 12.7836 26.9428 13.8487 29.0586C13.9723 29.3038 14.1032 29.5465 14.2383 29.7877C14.8057 28.7329 15.2685 27.626 15.6463 26.4876C14.9564 24.4059 14.5558 22.2198 14.4072 20.0337C14.357 19.2929 14.3373 18.5465 14.3369 17.7998H14.3393C14.3399 17.0527 14.357 16.3063 14.4078 15.5659C14.5885 12.8965 15.1403 10.2256 16.1497 7.74948C16.5416 6.78639 17.0065 5.85602 17.5474 4.9658C17.5889 4.89722 17.6295 4.82814 17.6702 4.75907C17.7533 4.61767 17.8365 4.4761 17.9275 4.33909C18.2018 3.92542 18.4988 3.51877 18.8137 3.12315C19.1729 2.67135 19.5566 2.2346 19.9671 1.82695C20.4035 1.39354 20.87 0.993575 21.3615 0.636082C21.3793 0.623157 21.3966 0.609692 21.4139 0.596265C21.435 0.579825 21.4562 0.563401 21.4779 0.54813C22.8892 1.54485 24.0823 2.90975 25.0287 4.33551C27.2256 7.64343 28.2809 11.6056 28.5492 15.5531C28.599 16.2932 28.623 17.0383 28.6237 17.7851C28.623 18.5319 28.599 19.277 28.5492 20.0171C28.2802 23.9646 27.2256 27.9264 25.0277 31.234C24.137 32.5775 23.0266 33.867 21.721 34.8452C21.2309 34.4771 20.766 34.067 20.3274 33.6285C19.9363 33.9053 19.5207 34.1538 19.0833 34.3595C19.8411 34.7159 20.6542 34.9553 21.4779 35.0385V35.0689H21.4786C21.5577 35.0669 21.6368 35.0632 21.7158 35.0581C21.7959 35.0632 21.876 35.0668 21.9561 35.0689H21.9568V35.0375C23.2438 34.9017 24.5024 34.3594 25.5282 33.5803ZM20.0278 33.7504C19.6652 34.0039 19.2795 34.2314 18.8741 34.4197C18.1825 34.7411 17.4405 34.9585 16.6888 35.0376V35.0689C16.6108 35.0667 16.5329 35.0629 16.4549 35.0576C16.3735 35.0631 16.2918 35.0668 16.2102 35.0689L16.2099 35.0368C16.1888 35.0346 16.1677 35.0323 16.1466 35.03C15.9909 35.0126 15.8362 34.9868 15.6816 34.9588C15.0398 34.8423 14.4101 34.6396 13.8154 34.3596C14.2526 34.1537 14.6683 33.9056 15.0594 33.6285C15.4053 33.9746 15.768 34.3022 16.1466 34.6066C16.2471 34.6873 16.3493 34.7657 16.4525 34.8425C16.8981 34.5108 17.322 34.1446 17.721 33.7504C18.1314 33.345 18.5144 32.9109 18.8741 32.4616C19.1892 32.0678 19.4862 31.6633 19.7602 31.2522C21.9575 27.9597 23.0117 24.0157 23.2808 20.0859C23.3312 19.3492 23.3549 18.6075 23.3555 17.8641C23.3549 17.121 23.3312 16.379 23.2808 15.6426C23.0124 11.7128 21.9579 7.76908 19.7608 4.47593C19.6372 4.291 19.509 4.10707 19.3771 3.92481C19.7532 3.40461 20.1627 2.89838 20.6044 2.42142C21.9783 3.56359 23.0342 5.0753 23.8395 6.66652C24.9042 8.77089 25.5843 11.1108 25.9353 13.4031C26.1635 14.8962 26.2683 16.393 26.267 17.8641H26.2663C26.268 19.3352 26.1635 20.832 25.935 22.3253C25.5839 24.6173 24.9042 26.9579 23.8395 29.062C22.9672 30.7846 21.8066 32.4196 20.2606 33.5875C20.21 33.6257 20.1576 33.6615 20.1052 33.6972C20.0793 33.7149 20.0534 33.7325 20.0278 33.7504ZM13.6107 32.4522C13.6106 32.4522 13.6107 32.4523 13.6107 32.4522V32.4522ZM14.7598 33.7429C14.3972 33.9977 14.0118 34.2265 13.6064 34.4157C12.7685 34.8073 11.8566 35.0455 10.9422 35.0689L10.9419 35.0217C10.9637 35.0063 10.9849 34.99 11.006 34.9738L11.026 34.9585C11.0368 34.9502 11.0476 34.942 11.0586 34.9341C11.5504 34.5763 12.0165 34.1763 12.4526 33.7429C12.8634 33.3352 13.2471 32.8988 13.6064 32.4471C13.9212 32.0511 14.2182 31.6444 14.4925 31.2307C14.5834 31.0938 14.6665 30.9525 14.7496 30.8112C14.7902 30.7421 14.831 30.6727 14.8725 30.6041C15.4135 29.7138 15.8783 28.7835 16.2706 27.8207C17.2796 25.3443 17.8314 22.6733 18.0124 20.004C18.0628 19.2636 18.0803 18.5172 18.0806 17.7701H18.0833C18.0826 17.0233 18.0632 16.2769 18.0131 15.5362C17.8644 13.3504 17.4642 11.164 16.7739 9.08222C17.1514 7.94384 17.6142 6.83726 18.1818 5.78219C18.317 6.0233 18.4482 6.26609 18.5715 6.51153C19.6362 8.6271 20.3166 10.98 20.6674 13.2846C20.8958 14.7861 21.0003 16.2909 20.999 17.7701C21.0006 19.2492 20.8958 20.7541 20.6674 22.2556C20.3163 24.5601 19.6362 26.9134 18.5715 29.0286C18.3005 29.567 17.9979 30.0944 17.6686 30.6044C17.2536 31.2465 16.7891 31.8551 16.2706 32.4106C15.876 32.834 15.4534 33.2292 14.9925 33.5791C14.9441 33.6159 14.8936 33.6506 14.843 33.6852C14.8152 33.7043 14.7873 33.7234 14.7598 33.7429ZM12.3268 1.99936C12.3859 1.95768 12.4457 1.91669 12.5061 1.87646C12.0165 1.39299 11.4946 0.945613 10.9419 0.551846V0.500977H10.9426C11.9149 0.525712 12.8848 0.77786 13.7789 1.19357C14.5201 0.886413 15.3107 0.702181 16.103 0.681794L16.1033 0.728659C16.0813 0.744307 16.0599 0.760894 16.0385 0.777484C16.0217 0.790487 16.0049 0.803521 15.9878 0.816076C15.5014 1.17173 15.0403 1.56893 14.6086 2.00003C14.2026 2.4052 13.8234 2.83897 13.468 3.28802C13.1566 3.68122 12.8625 4.0854 12.5915 4.49656C10.418 7.78681 9.3752 11.7282 9.10914 15.655C9.05927 16.3913 9.03576 17.1325 9.03512 17.8753C9.03576 18.6179 9.05927 19.3594 9.10914 20.0953C9.37456 24.0224 10.4177 27.9635 12.5909 31.2541C12.7132 31.4392 12.84 31.623 12.9701 31.8056C12.5984 32.3251 12.1934 32.8309 11.7565 33.3079C10.3971 32.1662 9.35303 30.6555 8.55649 29.0654C7.50328 26.9627 6.83058 24.624 6.48334 22.3336C6.25738 20.8412 6.15401 19.3454 6.15532 17.8753H6.15597C6.15434 16.4052 6.2577 14.9095 6.48366 13.4171C6.83093 11.1266 7.50328 8.78799 8.55679 6.68495C9.41924 4.96356 10.5673 3.32956 12.0966 2.16256C12.1452 2.12555 12.1956 2.09064 12.2461 2.05575C12.2731 2.03707 12.3 2.01837 12.3268 1.99936ZM6.82638 2.16256C5.29646 3.32923 4.14838 4.96356 3.28594 6.68495C2.23274 8.78799 1.56039 11.1266 1.21313 13.4171C0.98717 14.9091 0.883806 16.4052 0.885111 17.8753C0.88348 19.3452 0.986843 20.8412 1.21281 22.3336C1.56007 24.624 2.23274 26.9624 3.28594 29.0654C4.14838 30.7871 5.29646 32.4211 6.82603 33.5878C7.96663 34.4586 9.39708 35.0323 10.8321 35.0686L10.8324 35.022C9.43686 34.0305 8.25648 32.6724 7.32035 31.2544C5.14745 27.9638 4.10371 24.0224 3.83829 20.0953C3.78873 19.3594 3.76525 18.6179 3.7646 17.8753C3.76525 17.1325 3.78873 16.3913 3.83829 15.6547C4.10436 11.7279 5.14745 7.78681 7.32099 4.49656C8.25648 3.07794 9.43686 1.71983 10.8324 0.728327V0.681794C9.39772 0.718356 7.96663 1.29172 6.82638 2.16256ZM18.6044 32.0113C18.1881 32.5709 17.7348 33.1158 17.2454 33.6285C16.8801 33.3341 16.5353 33.0171 16.2099 32.6807C16.7844 32.0861 17.2987 31.4345 17.7589 30.7479C17.805 30.8213 17.8499 30.8953 17.895 30.9692C17.9871 31.1205 18.0792 31.2718 18.18 31.4184C18.3162 31.6177 18.4583 31.8152 18.6044 32.0113Z" fill="#E30613"/>
</svg>
