<svg width="18" height="18" viewBox="0 0 18 18" fill="none" xmlns="http://www.w3.org/2000/svg">
<g clip-path="url(#clip0_16169_3171)">
<path d="M14.5202 2.28C13.7602 1.56 12.9102 0.999998 11.9702 0.599998C11.0302 0.199999 10.0402 -1.90735e-06 9.0002 -1.90735e-06C7.9602 -1.90735e-06 6.9602 0.199999 6.0002 0.599998C5.0402 0.999998 4.2002 1.56 3.4802 2.28C2.7602 3 2.2002 3.84 1.8002 4.8C1.4002 5.76 1.2002 6.76 1.2002 7.8C1.2002 8.84 1.4002 9.83 1.8002 10.77C2.2002 11.71 2.7602 12.56 3.4802 13.32L7.6202 17.46C7.9802 17.82 8.4302 18 8.9702 18C9.5102 18 9.9802 17.82 10.3802 17.46L14.5202 13.32C15.2402 12.56 15.8002 11.71 16.2002 10.77C16.6002 9.83 16.8002 8.84 16.8002 7.8C16.8002 6.76 16.6002 5.76 16.2002 4.8C15.8002 3.84 15.2402 3 14.5202 2.28ZM13.7402 12.54L9.6002 16.68C9.4402 16.84 9.2402 16.92 9.0002 16.92C8.7602 16.92 8.5402 16.84 8.3402 16.68L4.2002 12.54C3.5602 11.9 3.0802 11.17 2.7602 10.35C2.4402 9.53 2.2802 8.67 2.2802 7.77C2.2802 6.87 2.4402 6.01 2.7602 5.19C3.0802 4.37 3.5602 3.65 4.2002 3.03C4.8402 2.41 5.5702 1.93 6.3902 1.59C7.2102 1.25 8.0702 1.08 8.9702 1.08C9.8702 1.08 10.7302 1.25 11.5502 1.59C12.3702 1.93 13.1002 2.4 13.7402 3C14.6202 3.88 15.2102 4.9 15.5102 6.06C15.8102 7.22 15.8102 8.38 15.5102 9.54C15.2102 10.7 14.6202 11.7 13.7402 12.54ZM9.0002 4.98C8.2402 4.98 7.5802 5.26 7.0202 5.82C6.4602 6.38 6.1802 7.04 6.1802 7.8C6.1802 8.56 6.4602 9.21 7.0202 9.75C7.5802 10.29 8.2402 10.56 9.0002 10.56C9.7602 10.56 10.4102 10.29 10.9502 9.75C11.4902 9.21 11.7602 8.56 11.7602 7.8C11.7602 7.04 11.4902 6.38 10.9502 5.82C10.4102 5.26 9.7602 4.98 9.0002 4.98ZM9.0002 9.54C8.5202 9.54 8.1102 9.37 7.7702 9.03C7.4302 8.69 7.2602 8.28 7.2602 7.8C7.2602 7.32 7.4302 6.91 7.7702 6.57C8.1102 6.23 8.5202 6.06 9.0002 6.06C9.4802 6.06 9.8902 6.23 10.2302 6.57C10.5702 6.91 10.7402 7.32 10.7402 7.8C10.7402 8.28 10.5702 8.69 10.2302 9.03C9.8902 9.37 9.4802 9.54 9.0002 9.54Z" fill="#131E29"/>
</g>
<defs>
<clipPath id="clip0_16169_3171">
<rect width="18" height="18" fill="white" transform="matrix(1 0 0 -1 0 18)"/>
</clipPath>
</defs>
</svg>
